<svg xmlns="http://www.w3.org/2000/svg" width="400" height="300" viewBox="0 0 400 300">
  <rect width="400" height="300" fill="#f57f17"/>
  <!-- Shadow -->
  <ellipse cx="200" cy="240" rx="80" ry="12" fill="rgba(0,0,0,0.2)"/>
  <!-- Fry cup -->
  <path d="M150 180 L165 240 L235 240 L250 180 Z" fill="#E60012"/>
  <path d="M155 185 L168 235 L232 235 L245 185 Z" fill="#c8000f"/>
  <!-- Fries -->
  <rect x="170" y="100" width="14" height="90" rx="5" fill="#ffd600" transform="rotate(-8 177 145)"/>
  <rect x="186" y="95" width="14" height="100" rx="5" fill="#ffca28"/>
  <rect x="202" y="98" width="14" height="95" rx="5" fill="#ffd600" transform="rotate(5 209 145)"/>
  <rect x="218" y="102" width="14" height="90" rx="5" fill="#ffca28" transform="rotate(-3 225 145)"/>
  <rect x="162" y="105" width="12" height="85" rx="5" fill="#ffe082" transform="rotate(6 168 145)"/>
  <rect x="228" y="108" width="12" height="80" rx="5" fill="#ffe082" transform="rotate(-7 234 145)"/>
  <!-- Cup label -->
  <text x="200" y="220" text-anchor="middle" font-family="system-ui, sans-serif" font-size="16" fill="white" font-weight="800">M</text>
  <!-- Label -->
  <text x="200" y="275" text-anchor="middle" font-family="system-ui, sans-serif" font-size="13" fill="white" font-weight="600">Seasoned Fries</text>
</svg>
