<svg xmlns="http://www.w3.org/2000/svg" width="600" height="338" viewBox="0 0 600 338">
  <defs>
    <linearGradient id="sky2" x1="0%" y1="0%" x2="0%" y2="100%">
      <stop offset="0%" stop-color="#1a0a2e"/>
      <stop offset="100%" stop-color="#2d1060"/>
    </linearGradient>
  </defs>
  <rect width="600" height="338" fill="url(#sky2)"/>
  <!-- Buildings -->
  <rect x="0" y="50" width="120" height="290" fill="#1e0a3c"/>
  <rect x="100" y="100" width="90" height="240" fill="#2a1050"/>
  <rect x="380" y="70" width="110" height="270" fill="#1e0a3c"/>
  <rect x="470" y="40" width="130" height="300" fill="#2a1050"/>
  <!-- Main building -->
  <rect x="170" y="40" width="240" height="300" fill="#1e0a3c"/>
  <!-- Colorful neon effects -->
  <rect x="170" y="40" width="240" height="300" fill="#9c27b0" opacity="0.03"/>
  <!-- Neon sign board -->
  <rect x="190" y="120" width="200" height="80" fill="#9c27b0" rx="6"/>
  <rect x="193" y="123" width="194" height="74" fill="#7b1fa2" rx="4"/>
  <text x="290" y="148" text-anchor="middle" font-family="system-ui, sans-serif" font-size="10" fill="#ce93d8" font-weight="800">カラオケ</text>
  <text x="290" y="174" text-anchor="middle" font-family="system-ui, sans-serif" font-size="16" fill="white" font-weight="900">まねきねこ</text>
  <text x="290" y="192" text-anchor="middle" font-family="system-ui, sans-serif" font-size="8" fill="#e1bee7">SHINJUKU</text>
  <!-- Windows -->
  <rect x="190" y="55" width="25" height="18" fill="#e1f5fe" opacity="0.7" rx="2"/>
  <rect x="225" y="55" width="25" height="18" fill="#fff9c4" opacity="0.6" rx="2"/>
  <rect x="260" y="55" width="25" height="18" fill="#e1f5fe" opacity="0.8" rx="2"/>
  <rect x="295" y="55" width="25" height="18" fill="#fff9c4" opacity="0.5" rx="2"/>
  <rect x="330" y="55" width="25" height="18" fill="#e1f5fe" opacity="0.7" rx="2"/>
  <rect x="365" y="55" width="25" height="18" fill="#fff9c4" opacity="0.6" rx="2"/>
  <rect x="190" y="83" width="25" height="18" fill="#fff9c4" opacity="0.8" rx="2"/>
  <rect x="260" y="83" width="25" height="18" fill="#e1f5fe" opacity="0.7" rx="2"/>
  <rect x="330" y="83" width="25" height="18" fill="#fff9c4" opacity="0.9" rx="2"/>
  <!-- Street level  -->
  <rect x="0" y="285" width="600" height="55" fill="#0a0018"/>
  <rect x="175" y="285" width="250" height="3" fill="#9c27b0" opacity="0.8"/>
  <!-- Entrance -->
  <rect x="250" y="220" width="80" height="70" fill="#2d1060"/>
  <rect x="254" y="225" width="34" height="65" fill="#1e0840"/>
  <!-- Label -->
  <text x="300" y="325" text-anchor="middle" font-family="system-ui, sans-serif" font-size="12" fill="rgba(255,255,255,0.4)">Shinjuku Store — Placeholder Image</text>
</svg>
